<svg width="201" height="100" viewBox="0 0 201 100" fill="none" xmlns="http://www.w3.org/2000/svg">
<path d="M63.0059 93.6602V97H61.8809V88.4688H65.0273C65.9609 88.4688 66.6914 88.707 67.2188 89.1836C67.75 89.6602 68.0156 90.291 68.0156 91.0762C68.0156 91.9043 67.7559 92.543 67.2363 92.9922C66.7207 93.4375 65.9805 93.6602 65.0156 93.6602H63.0059ZM63.0059 92.7402H65.0273C65.6289 92.7402 66.0898 92.5996 66.4102 92.3184C66.7305 92.0332 66.8906 91.623 66.8906 91.0879C66.8906 90.5801 66.7305 90.1738 66.4102 89.8691C66.0898 89.5645 65.6504 89.4062 65.0918 89.3945H63.0059V92.7402ZM71.332 96.0801H75.375V97H70.2012V88.4688H71.332V96.0801ZM83.0977 88.4688V94.2695C83.0938 95.0742 82.8398 95.7324 82.3359 96.2441C81.8359 96.7559 81.1562 97.043 80.2969 97.1055L79.998 97.1172C79.0645 97.1172 78.3203 96.8652 77.7656 96.3613C77.2109 95.8574 76.9297 95.1641 76.9219 94.2812V88.4688H78.0352V94.2461C78.0352 94.8633 78.2051 95.3438 78.5449 95.6875C78.8848 96.0273 79.3691 96.1973 79.998 96.1973C80.6348 96.1973 81.1211 96.0273 81.457 95.6875C81.7969 95.3477 81.9668 94.8691 81.9668 94.252V88.4688H83.0977ZM91.9219 95.8809C91.6328 96.2949 91.2285 96.6055 90.709 96.8125C90.1934 97.0156 89.5918 97.1172 88.9043 97.1172C88.209 97.1172 87.5918 96.9551 87.0527 96.6309C86.5137 96.3027 86.0957 95.8379 85.7988 95.2363C85.5059 94.6348 85.3555 93.9375 85.3477 93.1445V92.4004C85.3477 91.1152 85.6465 90.1191 86.2441 89.4121C86.8457 88.7051 87.6895 88.3516 88.7754 88.3516C89.666 88.3516 90.3828 88.5801 90.9258 89.0371C91.4688 89.4902 91.8008 90.1348 91.9219 90.9707H90.7969C90.5859 89.8418 89.9141 89.2773 88.7812 89.2773C88.0273 89.2773 87.4551 89.543 87.0645 90.0742C86.6777 90.6016 86.4824 91.3672 86.4785 92.3711V93.0684C86.4785 94.0254 86.6973 94.7871 87.1348 95.3535C87.5723 95.916 88.1641 96.1973 88.9102 96.1973C89.332 96.1973 89.7012 96.1504 90.0176 96.0566C90.334 95.9629 90.5957 95.8047 90.8027 95.582V93.666H88.8281V92.752H91.9219V95.8809ZM97.8809 94.709C97.8809 94.2988 97.9941 93.9219 98.2207 93.5781C98.4512 93.2344 98.8887 92.834 99.5332 92.377C99.1543 91.916 98.9004 91.5449 98.7715 91.2637C98.6426 90.9824 98.5781 90.7031 98.5781 90.4258C98.5781 89.7773 98.7695 89.2695 99.1523 88.9023C99.5352 88.5352 100.055 88.3516 100.711 88.3516C101.297 88.3516 101.781 88.5234 102.164 88.8672C102.547 89.207 102.738 89.6367 102.738 90.1562C102.738 90.5 102.65 90.8184 102.475 91.1113C102.303 91.4004 102 91.7051 101.566 92.0254L100.939 92.4883L102.838 94.7559C103.104 94.248 103.236 93.6836 103.236 93.0625H104.215C104.215 94.0586 103.975 94.8848 103.494 95.541L104.713 97H103.412L102.844 96.3262C102.555 96.584 102.215 96.7812 101.824 96.918C101.438 97.0508 101.043 97.1172 100.641 97.1172C99.8086 97.1172 99.1406 96.8965 98.6367 96.4551C98.1328 96.0137 97.8809 95.4316 97.8809 94.709ZM100.641 96.2324C101.215 96.2324 101.74 96.0137 102.217 95.5762L100.137 93.0859L99.9434 93.2266C99.291 93.707 98.9648 94.2012 98.9648 94.709C98.9648 95.1699 99.1133 95.5391 99.4102 95.8164C99.7109 96.0938 100.121 96.2324 100.641 96.2324ZM99.6621 90.3906C99.6621 90.7656 99.8926 91.2344 100.354 91.7969L101.045 91.3105C101.311 91.123 101.492 90.9453 101.59 90.7773C101.688 90.6055 101.736 90.3984 101.736 90.1562C101.736 89.8945 101.639 89.6777 101.443 89.5059C101.248 89.3301 101.002 89.2422 100.705 89.2422C100.385 89.2422 100.131 89.3516 99.9434 89.5703C99.7559 89.7852 99.6621 90.0586 99.6621 90.3906ZM111.346 93.6602V97H110.221V88.4688H113.367C114.301 88.4688 115.031 88.707 115.559 89.1836C116.09 89.6602 116.355 90.291 116.355 91.0762C116.355 91.9043 116.096 92.543 115.576 92.9922C115.061 93.4375 114.32 93.6602 113.355 93.6602H111.346ZM111.346 92.7402H113.367C113.969 92.7402 114.43 92.5996 114.75 92.3184C115.07 92.0332 115.23 91.623 115.23 91.0879C115.23 90.5801 115.07 90.1738 114.75 89.8691C114.43 89.5645 113.99 89.4062 113.432 89.3945H111.346V92.7402ZM119.672 96.0801H123.715V97H118.541V88.4688H119.672V96.0801ZM130.576 94.7734H127.002L126.199 97H125.039L128.297 88.4688H129.281L132.545 97H131.391L130.576 94.7734ZM127.342 93.8477H130.242L128.789 89.8574L127.342 93.8477ZM136.494 92.752L138.721 88.4688H139.998L137.057 93.8184V97H135.932V93.8184L132.99 88.4688H134.279L136.494 92.752Z" fill="#1A1A1A"/>
<g clip-path="url(#clip0_1_384)">
<path d="M132.85 32.8125C132.856 32.0136 132.457 31.2913 131.783 30.8799L131.376 30.6315C132.066 28.6784 133.47 21.9868 124.498 13.8346C119.686 9.46142 112.366 6.82881 103.888 6.42163C96.2206 6.0503 88.2746 7.51001 82.0761 10.4175C74.3342 14.0488 69.3294 20.0046 69.0157 25.9604C68.8178 29.7224 70.3955 35.3085 79.0356 40.5652C84.0703 43.628 89.9998 44.7762 95.631 44.7762C99.358 44.7762 102.952 44.2734 106.068 43.4897L106.066 44.1385L102.285 46.3306C101.185 46.9769 100.326 48.4904 100.33 49.7768C100.332 50.5049 100.617 51.0888 101.11 51.3774C101.328 51.5045 101.573 51.5677 101.834 51.5677C102.168 51.5677 102.525 51.4636 102.876 51.2569L106.187 49.3372C106.278 49.6009 106.414 49.845 106.589 50.0602C105.896 50.8174 105.422 51.8963 105.425 52.8507C105.426 53.5788 105.712 54.1619 106.205 54.4513C106.423 54.5793 106.668 54.6417 106.929 54.6417C107.263 54.6417 107.619 54.5375 107.971 54.3317L110.72 52.738L116.563 56.2986C116.931 56.5239 117.338 56.6366 117.746 56.6366C118.134 56.6366 118.522 56.5349 118.878 56.3302C118.981 56.2712 119.076 56.2037 119.167 56.132L131.106 48.1498C132.187 47.495 132.855 46.2974 132.851 45.0169L132.814 33.1975C132.834 33.0712 132.85 32.944 132.85 32.8125ZM119.08 39.8977C118.888 39.7031 118.674 39.528 118.437 39.3838L110.308 34.4311L120.815 28.1141C121.645 27.6199 122.675 27.625 123.5 28.1295L130.784 32.5735C130.888 32.6366 130.909 32.7306 130.909 32.7989C130.909 32.8671 130.885 32.9602 130.783 33.0208L119.08 39.8977ZM80.0322 38.869C73.8508 35.1088 70.7126 30.681 70.9551 26.0654C71.2293 20.8429 75.803 15.535 82.8894 12.211C94.6463 6.69736 113.651 6.62565 123.205 15.3071C130.816 22.2232 130.207 27.6976 129.67 29.5901L124.499 26.435C123.634 25.9066 122.64 25.6992 121.669 25.8025C119.888 20.3247 113.508 14.5457 102.992 13.6877C99.3135 13.3873 95.3816 13.7219 91.3067 14.6814C88.1161 15.4326 86.3738 16.322 84.4413 17.6034L85.5024 19.2577C87.2943 18.0695 88.8197 17.2944 91.7445 16.6055C95.6241 15.6921 99.3554 15.3728 102.837 15.6571C112.461 16.4416 118.249 21.5693 119.823 26.4145L107.401 33.8821C107.353 33.9052 107.305 33.9257 107.258 33.9521C106.527 34.3712 106.09 35.131 106.088 35.9838L106.073 41.4496C98.6073 43.4334 88.0638 43.7544 80.0322 38.869ZM102.295 50.2283C102.045 50.3743 101.814 50.4204 101.691 50.3487C101.57 50.2778 101.494 50.0568 101.494 49.7717C101.491 48.9001 102.12 47.793 102.864 47.3567L109.993 43.2242L110 45.7613L102.295 50.2283ZM107.39 53.304C107.14 53.4499 106.908 53.496 106.785 53.4243C106.665 53.3535 106.589 53.1324 106.588 52.8481C106.586 51.9766 107.215 50.8694 107.959 50.4332L115.088 46.2999L115.095 48.8369L107.39 53.304ZM112.656 51.6155L115.968 49.6957C116.15 49.5898 116.263 49.3926 116.262 49.1793L116.252 45.2798C116.251 45.069 116.14 44.8744 115.961 44.7686C115.782 44.6626 115.561 44.6618 115.38 44.7668L108.224 48.9154L108.17 48.883C108.062 48.8173 107.995 48.6969 107.995 48.5655V48.2897L110.873 46.6217C111.055 46.5159 111.168 46.3187 111.167 46.1053L111.157 42.2059C111.156 41.995 111.045 41.8005 110.866 41.6945C110.687 41.5887 110.466 41.5879 110.285 41.6929L108.011 43.0109L108.03 35.9915C108.03 35.8062 108.145 35.7132 108.212 35.6739C108.28 35.6347 108.417 35.5835 108.575 35.6791L117.438 41.0782C117.871 41.3429 118.14 41.8269 118.139 42.3408L118.105 54.2916C118.105 54.4154 118.054 54.4949 118 54.5477L117.876 54.6305C117.801 54.6613 117.688 54.6818 117.56 54.6041L112.656 51.6155ZM130.1 46.4578L120.052 53.1759L120.081 42.3459C120.082 42.1043 120.052 41.8678 120.003 41.6366L130.877 35.2479L130.908 45.022C130.909 45.611 130.6 46.1608 130.1 46.4578Z" fill="#AAAAAA"/>
</g>
<defs>
<clipPath id="clip0_1_384">
<rect width="64" height="51" fill="white" transform="translate(69 6)"/>
</clipPath>
</defs>
</svg>
